<svg width="48" height="10" viewBox="0 0 48 10" fill="none" xmlns="http://www.w3.org/2000/svg">
<path d="M0.942829 9V0.599999H1.67483L5.51483 7.152H5.13083L8.93483 0.599999H9.66683V9H8.81483V1.932H9.01883L5.51483 7.932H5.09483L1.56683 1.932H1.79483V9H0.942829ZM14.8998 9.06C14.2438 9.06 13.6678 8.924 13.1718 8.652C12.6758 8.372 12.2878 7.992 12.0078 7.512C11.7278 7.024 11.5878 6.468 11.5878 5.844C11.5878 5.22 11.7198 4.668 11.9838 4.188C12.2558 3.708 12.6238 3.332 13.0878 3.06C13.5598 2.78 14.0878 2.64 14.6718 2.64C15.2638 2.64 15.7878 2.776 16.2438 3.048C16.7078 3.312 17.0718 3.688 17.3358 4.176C17.5998 4.656 17.7318 5.212 17.7318 5.844C17.7318 5.884 17.7278 5.928 17.7198 5.976C17.7198 6.016 17.7198 6.06 17.7198 6.108H12.2358V5.472H17.2638L16.9278 5.724C16.9278 5.268 16.8278 4.864 16.6278 4.512C16.4358 4.152 16.1718 3.872 15.8358 3.672C15.4998 3.472 15.1118 3.372 14.6718 3.372C14.2398 3.372 13.8518 3.472 13.5078 3.672C13.1638 3.872 12.8958 4.152 12.7038 4.512C12.5118 4.872 12.4158 5.284 12.4158 5.748V5.88C12.4158 6.36 12.5198 6.784 12.7278 7.152C12.9438 7.512 13.2398 7.796 13.6158 8.004C13.9998 8.204 14.4358 8.304 14.9238 8.304C15.3078 8.304 15.6638 8.236 15.9918 8.1C16.3278 7.964 16.6158 7.756 16.8558 7.476L17.3358 8.028C17.0558 8.364 16.7038 8.62 16.2798 8.796C15.8638 8.972 15.4038 9.06 14.8998 9.06ZM23.2382 9V7.608L23.2022 7.38V5.052C23.2022 4.516 23.0502 4.104 22.7462 3.816C22.4502 3.528 22.0062 3.384 21.4142 3.384C21.0062 3.384 20.6182 3.452 20.2502 3.588C19.8822 3.724 19.5702 3.904 19.3142 4.128L18.9302 3.492C19.2502 3.22 19.6342 3.012 20.0822 2.868C20.5302 2.716 21.0022 2.64 21.4982 2.64C22.3142 2.64 22.9422 2.844 23.3822 3.252C23.8302 3.652 24.0542 4.264 24.0542 5.088V9H23.2382ZM21.0662 9.06C20.5942 9.06 20.1822 8.984 19.8302 8.832C19.4862 8.672 19.2222 8.456 19.0382 8.184C18.8542 7.904 18.7622 7.584 18.7622 7.224C18.7622 6.896 18.8382 6.6 18.9902 6.336C19.1502 6.064 19.4062 5.848 19.7582 5.688C20.1182 5.52 20.5982 5.436 21.1982 5.436H23.3702V6.072H21.2222C20.6142 6.072 20.1902 6.18 19.9502 6.396C19.7182 6.612 19.6022 6.88 19.6022 7.2C19.6022 7.56 19.7422 7.848 20.0222 8.064C20.3022 8.28 20.6942 8.388 21.1982 8.388C21.6782 8.388 22.0902 8.28 22.4342 8.064C22.7862 7.84 23.0422 7.52 23.2022 7.104L23.3942 7.692C23.2342 8.108 22.9542 8.44 22.5542 8.688C22.1622 8.936 21.6662 9.06 21.0662 9.06ZM28.0603 9.06C27.5403 9.06 27.0483 8.988 26.5843 8.844C26.1203 8.692 25.7563 8.504 25.4923 8.28L25.8763 7.608C26.1323 7.8 26.4603 7.968 26.8603 8.112C27.2603 8.248 27.6803 8.316 28.1203 8.316C28.7203 8.316 29.1523 8.224 29.4163 8.04C29.6803 7.848 29.8123 7.596 29.8123 7.284C29.8123 7.052 29.7363 6.872 29.5843 6.744C29.4403 6.608 29.2483 6.508 29.0083 6.444C28.7683 6.372 28.5003 6.312 28.2043 6.264C27.9083 6.216 27.6123 6.16 27.3163 6.096C27.0283 6.032 26.7643 5.94 26.5243 5.82C26.2843 5.692 26.0883 5.52 25.9363 5.304C25.7923 5.088 25.7203 4.8 25.7203 4.44C25.7203 4.096 25.8163 3.788 26.0083 3.516C26.2003 3.244 26.4803 3.032 26.8483 2.88C27.2243 2.72 27.6803 2.64 28.2163 2.64C28.6243 2.64 29.0323 2.696 29.4403 2.808C29.8483 2.912 30.1843 3.052 30.4483 3.228L30.0763 3.912C29.7963 3.72 29.4963 3.584 29.1763 3.504C28.8563 3.416 28.5363 3.372 28.2163 3.372C27.6483 3.372 27.2283 3.472 26.9563 3.672C26.6923 3.864 26.5603 4.112 26.5603 4.416C26.5603 4.656 26.6323 4.844 26.7763 4.98C26.9283 5.116 27.1243 5.224 27.3643 5.304C27.6123 5.376 27.8803 5.436 28.1683 5.484C28.4643 5.532 28.7563 5.592 29.0443 5.664C29.3403 5.728 29.6083 5.82 29.8483 5.94C30.0963 6.052 30.2923 6.216 30.4363 6.432C30.5883 6.64 30.6643 6.916 30.6643 7.26C30.6643 7.628 30.5603 7.948 30.3523 8.22C30.1523 8.484 29.8563 8.692 29.4643 8.844C29.0803 8.988 28.6123 9.06 28.0603 9.06ZM34.2197 9.06C33.6277 9.06 33.1717 8.9 32.8517 8.58C32.5317 8.26 32.3717 7.808 32.3717 7.224V1.308H33.2237V7.176C33.2237 7.544 33.3157 7.828 33.4997 8.028C33.6917 8.228 33.9637 8.328 34.3157 8.328C34.6917 8.328 35.0037 8.22 35.2517 8.004L35.5517 8.616C35.3837 8.768 35.1797 8.88 34.9397 8.952C34.7077 9.024 34.4677 9.06 34.2197 9.06ZM31.2437 3.408V2.7H35.1437V3.408H31.2437ZM37.1027 9V2.7H37.9187V4.416L37.8347 4.116C38.0107 3.636 38.3067 3.272 38.7227 3.024C39.1387 2.768 39.6547 2.64 40.2707 2.64V3.468C40.2387 3.468 40.2067 3.468 40.1747 3.468C40.1427 3.46 40.1107 3.456 40.0787 3.456C39.4147 3.456 38.8947 3.66 38.5187 4.068C38.1427 4.468 37.9547 5.04 37.9547 5.784V9H37.1027ZM44.3347 9.06C43.7267 9.06 43.1787 8.924 42.6907 8.652C42.2107 8.372 41.8307 7.992 41.5507 7.512C41.2707 7.024 41.1307 6.468 41.1307 5.844C41.1307 5.212 41.2707 4.656 41.5507 4.176C41.8307 3.696 42.2107 3.32 42.6907 3.048C43.1707 2.776 43.7187 2.64 44.3347 2.64C44.9587 2.64 45.5107 2.776 45.9907 3.048C46.4787 3.32 46.8587 3.696 47.1307 4.176C47.4107 4.656 47.5507 5.212 47.5507 5.844C47.5507 6.468 47.4107 7.024 47.1307 7.512C46.8587 7.992 46.4787 8.372 45.9907 8.652C45.5027 8.924 44.9507 9.06 44.3347 9.06ZM44.3347 8.304C44.7907 8.304 45.1947 8.204 45.5467 8.004C45.8987 7.796 46.1747 7.508 46.3747 7.14C46.5827 6.764 46.6867 6.332 46.6867 5.844C46.6867 5.348 46.5827 4.916 46.3747 4.548C46.1747 4.18 45.8987 3.896 45.5467 3.696C45.1947 3.488 44.7947 3.384 44.3467 3.384C43.8987 3.384 43.4987 3.488 43.1467 3.696C42.7947 3.896 42.5147 4.18 42.3067 4.548C42.0987 4.916 41.9947 5.348 41.9947 5.844C41.9947 6.332 42.0987 6.764 42.3067 7.14C42.5147 7.508 42.7947 7.796 43.1467 8.004C43.4987 8.204 43.8947 8.304 44.3347 8.304Z" fill="white"/>
</svg>
