<svg width="190" height="66" viewBox="0 0 190 66" fill="none" xmlns="http://www.w3.org/2000/svg">
<path d="M6.82083 28.18C5.68083 28.18 4.70283 27.94 3.88683 27.46C3.07083 26.968 2.44683 26.26 2.01483 25.336C1.58283 24.412 1.36683 23.272 1.36683 21.916C1.36683 20.476 1.62483 19.258 2.14083 18.262C2.66883 17.266 3.39483 16.51 4.31883 15.994C5.25483 15.478 6.32883 15.22 7.54083 15.22C8.17683 15.22 8.78283 15.286 9.35883 15.418C9.94683 15.55 10.4448 15.754 10.8528 16.03L9.98883 17.794C9.64083 17.566 9.26283 17.41 8.85483 17.326C8.45883 17.23 8.03883 17.182 7.59483 17.182C6.40683 17.182 5.46483 17.548 4.76883 18.28C4.07283 19.012 3.72483 20.092 3.72483 21.52C3.72483 21.748 3.73083 22.018 3.74283 22.33C3.75483 22.63 3.79683 22.936 3.86883 23.248L3.14883 22.456C3.36483 21.964 3.65883 21.556 4.03083 21.232C4.41483 20.896 4.86483 20.644 5.38083 20.476C5.90883 20.308 6.47883 20.224 7.09083 20.224C7.91883 20.224 8.65683 20.386 9.30483 20.71C9.95283 21.022 10.4688 21.472 10.8528 22.06C11.2368 22.636 11.4288 23.314 11.4288 24.094C11.4288 24.922 11.2248 25.642 10.8168 26.254C10.4088 26.866 9.85683 27.34 9.16083 27.676C8.46483 28.012 7.68483 28.18 6.82083 28.18ZM6.69483 26.344C7.17483 26.344 7.60083 26.26 7.97283 26.092C8.34483 25.912 8.63283 25.66 8.83683 25.336C9.05283 25.012 9.16083 24.634 9.16083 24.202C9.16083 23.542 8.93283 23.02 8.47683 22.636C8.02083 22.252 7.40883 22.06 6.64083 22.06C6.13683 22.06 5.69283 22.156 5.30883 22.348C4.93683 22.528 4.63683 22.78 4.40883 23.104C4.19283 23.428 4.08483 23.8 4.08483 24.22C4.08483 24.604 4.18683 24.958 4.39083 25.282C4.59483 25.606 4.88883 25.864 5.27283 26.056C5.66883 26.248 6.14283 26.344 6.69483 26.344ZM14.6701 28L19.8721 16.336L20.4841 17.38H13.3381L14.4541 16.246V19.522H12.2761V15.4H22.0681V16.966L17.1721 28H14.6701ZM27.3346 28.18C26.4466 28.18 25.5766 28.054 24.7246 27.802C23.8846 27.538 23.1766 27.178 22.6006 26.722L23.6086 24.904C24.0646 25.276 24.6166 25.576 25.2646 25.804C25.9126 26.032 26.5906 26.146 27.2986 26.146C28.1386 26.146 28.7926 25.978 29.2606 25.642C29.7286 25.294 29.9626 24.826 29.9626 24.238C29.9626 23.662 29.7466 23.206 29.3146 22.87C28.8826 22.534 28.1866 22.366 27.2266 22.366H26.0746V20.764L29.6746 16.48L29.9806 17.362H23.2126V15.4H31.7986V16.966L28.1986 21.25L26.9746 20.53H27.6766C29.2246 20.53 30.3826 20.878 31.1506 21.574C31.9306 22.258 32.3206 23.14 32.3206 24.22C32.3206 24.928 32.1406 25.582 31.7806 26.182C31.4206 26.782 30.8686 27.268 30.1246 27.64C29.3926 28 28.4626 28.18 27.3346 28.18ZM38.9092 28.18C37.8652 28.18 36.9592 28.024 36.1912 27.712C35.4232 27.4 34.8292 26.962 34.4092 26.398C33.9892 25.822 33.7792 25.15 33.7792 24.382C33.7792 23.614 33.9832 22.966 34.3912 22.438C34.7992 21.91 35.3872 21.508 36.1552 21.232C36.9232 20.956 37.8412 20.818 38.9092 20.818C39.9772 20.818 40.8952 20.956 41.6632 21.232C42.4432 21.508 43.0372 21.916 43.4452 22.456C43.8652 22.984 44.0752 23.626 44.0752 24.382C44.0752 25.15 43.8592 25.822 43.4272 26.398C43.0072 26.962 42.4072 27.4 41.6272 27.712C40.8592 28.024 39.9532 28.18 38.9092 28.18ZM38.9092 26.344C39.7732 26.344 40.4572 26.164 40.9612 25.804C41.4652 25.444 41.7172 24.946 41.7172 24.31C41.7172 23.686 41.4652 23.194 40.9612 22.834C40.4572 22.474 39.7732 22.294 38.9092 22.294C38.0452 22.294 37.3672 22.474 36.8752 22.834C36.3832 23.194 36.1372 23.686 36.1372 24.31C36.1372 24.946 36.3832 25.444 36.8752 25.804C37.3672 26.164 38.0452 26.344 38.9092 26.344ZM38.9092 22.042C37.9372 22.042 37.1032 21.916 36.4072 21.664C35.7112 21.4 35.1712 21.022 34.7872 20.53C34.4152 20.026 34.2292 19.426 34.2292 18.73C34.2292 18.01 34.4212 17.392 34.8052 16.876C35.2012 16.348 35.7532 15.94 36.4612 15.652C37.1692 15.364 37.9852 15.22 38.9092 15.22C39.8452 15.22 40.6672 15.364 41.3752 15.652C42.0832 15.94 42.6352 16.348 43.0312 16.876C43.4272 17.392 43.6252 18.01 43.6252 18.73C43.6252 19.426 43.4332 20.026 43.0492 20.53C42.6772 21.022 42.1372 21.4 41.4292 21.664C40.7212 21.916 39.8812 22.042 38.9092 22.042ZM38.9092 20.602C39.6532 20.602 40.2412 20.446 40.6732 20.134C41.1052 19.81 41.3212 19.378 41.3212 18.838C41.3212 18.274 41.0992 17.836 40.6552 17.524C40.2112 17.212 39.6292 17.056 38.9092 17.056C38.1892 17.056 37.6132 17.212 37.1812 17.524C36.7492 17.836 36.5332 18.274 36.5332 18.838C36.5332 19.378 36.7432 19.81 37.1632 20.134C37.5952 20.446 38.1772 20.602 38.9092 20.602ZM45.7914 23.932V22.06H50.7414V23.932H45.7914ZM54.1836 28V16.3L55.2096 17.362H51.5196V15.4H56.5236V28H54.1836ZM58.8611 28V26.434L63.8651 21.682C64.2851 21.286 64.5971 20.938 64.8011 20.638C65.0051 20.338 65.1371 20.062 65.1971 19.81C65.2691 19.546 65.3051 19.3 65.3051 19.072C65.3051 18.496 65.1071 18.052 64.7111 17.74C64.3151 17.416 63.7331 17.254 62.9651 17.254C62.3531 17.254 61.7951 17.362 61.2911 17.578C60.7991 17.794 60.3731 18.124 60.0131 18.568L58.3751 17.308C58.8671 16.648 59.5271 16.138 60.3551 15.778C61.1951 15.406 62.1311 15.22 63.1631 15.22C64.0751 15.22 64.8671 15.37 65.5391 15.67C66.2231 15.958 66.7451 16.372 67.1051 16.912C67.4771 17.452 67.6631 18.094 67.6631 18.838C67.6631 19.246 67.6091 19.654 67.5011 20.062C67.3931 20.458 67.1891 20.878 66.8891 21.322C66.5891 21.766 66.1511 22.264 65.5751 22.816L61.2731 26.902L60.7871 26.02H68.1491V28H58.8611ZM73.4596 28.18C72.5716 28.18 71.7016 28.054 70.8496 27.802C70.0096 27.538 69.3016 27.178 68.7256 26.722L69.7336 24.904C70.1896 25.276 70.7416 25.576 71.3896 25.804C72.0376 26.032 72.7156 26.146 73.4236 26.146C74.2636 26.146 74.9176 25.978 75.3856 25.642C75.8536 25.294 76.0876 24.826 76.0876 24.238C76.0876 23.662 75.8716 23.206 75.4396 22.87C75.0076 22.534 74.3116 22.366 73.3516 22.366H72.1996V20.764L75.7996 16.48L76.1056 17.362H69.3376V15.4H77.9236V16.966L74.3236 21.25L73.0996 20.53H73.8016C75.3496 20.53 76.5076 20.878 77.2756 21.574C78.0556 22.258 78.4456 23.14 78.4456 24.22C78.4456 24.928 78.2656 25.582 77.9056 26.182C77.5456 26.782 76.9936 27.268 76.2496 27.64C75.5176 28 74.5876 28.18 73.4596 28.18ZM79.7962 25.138V23.518L86.0062 15.4H88.5082L82.3882 23.518L81.2182 23.158H91.2082V25.138H79.7962ZM86.7082 28V25.138L86.7802 23.158V20.62H88.9762V28H86.7082ZM92.5668 23.932V22.06H97.5168V23.932H92.5668ZM103.543 15.22C104.695 15.22 105.673 15.466 106.477 15.958C107.293 16.438 107.917 17.14 108.349 18.064C108.781 18.988 108.997 20.128 108.997 21.484C108.997 22.924 108.733 24.142 108.205 25.138C107.689 26.134 106.969 26.89 106.045 27.406C105.121 27.922 104.047 28.18 102.823 28.18C102.187 28.18 101.581 28.114 101.005 27.982C100.429 27.85 99.9306 27.646 99.5106 27.37L100.375 25.606C100.723 25.834 101.101 25.996 101.509 26.092C101.917 26.176 102.337 26.218 102.769 26.218C103.957 26.218 104.899 25.852 105.595 25.12C106.291 24.388 106.639 23.308 106.639 21.88C106.639 21.652 106.633 21.388 106.621 21.088C106.609 20.776 106.567 20.464 106.495 20.152L107.215 20.944C107.011 21.436 106.717 21.85 106.333 22.186C105.949 22.51 105.499 22.756 104.983 22.924C104.467 23.092 103.897 23.176 103.273 23.176C102.457 23.176 101.719 23.02 101.059 22.708C100.411 22.384 99.8946 21.934 99.5106 21.358C99.1266 20.77 98.9346 20.086 98.9346 19.306C98.9346 18.466 99.1386 17.746 99.5466 17.146C99.9546 16.534 100.507 16.06 101.203 15.724C101.911 15.388 102.691 15.22 103.543 15.22ZM103.669 17.056C103.189 17.056 102.763 17.146 102.391 17.326C102.019 17.494 101.725 17.74 101.509 18.064C101.305 18.376 101.203 18.754 101.203 19.198C101.203 19.858 101.431 20.38 101.887 20.764C102.343 21.148 102.955 21.34 103.723 21.34C104.227 21.34 104.671 21.25 105.055 21.07C105.439 20.878 105.739 20.62 105.955 20.296C106.171 19.96 106.279 19.588 106.279 19.18C106.279 18.784 106.177 18.43 105.973 18.118C105.769 17.794 105.475 17.536 105.091 17.344C104.707 17.152 104.233 17.056 103.669 17.056ZM115.638 28.18C114.594 28.18 113.688 28.024 112.92 27.712C112.152 27.4 111.558 26.962 111.138 26.398C110.718 25.822 110.508 25.15 110.508 24.382C110.508 23.614 110.712 22.966 111.12 22.438C111.528 21.91 112.116 21.508 112.884 21.232C113.652 20.956 114.57 20.818 115.638 20.818C116.706 20.818 117.624 20.956 118.392 21.232C119.172 21.508 119.766 21.916 120.174 22.456C120.594 22.984 120.804 23.626 120.804 24.382C120.804 25.15 120.588 25.822 120.156 26.398C119.736 26.962 119.136 27.4 118.356 27.712C117.588 28.024 116.682 28.18 115.638 28.18ZM115.638 26.344C116.502 26.344 117.186 26.164 117.69 25.804C118.194 25.444 118.446 24.946 118.446 24.31C118.446 23.686 118.194 23.194 117.69 22.834C117.186 22.474 116.502 22.294 115.638 22.294C114.774 22.294 114.096 22.474 113.604 22.834C113.112 23.194 112.866 23.686 112.866 24.31C112.866 24.946 113.112 25.444 113.604 25.804C114.096 26.164 114.774 26.344 115.638 26.344ZM115.638 22.042C114.666 22.042 113.832 21.916 113.136 21.664C112.44 21.4 111.9 21.022 111.516 20.53C111.144 20.026 110.958 19.426 110.958 18.73C110.958 18.01 111.15 17.392 111.534 16.876C111.93 16.348 112.482 15.94 113.19 15.652C113.898 15.364 114.714 15.22 115.638 15.22C116.574 15.22 117.396 15.364 118.104 15.652C118.812 15.94 119.364 16.348 119.76 16.876C120.156 17.392 120.354 18.01 120.354 18.73C120.354 19.426 120.162 20.026 119.778 20.53C119.406 21.022 118.866 21.4 118.158 21.664C117.45 21.916 116.61 22.042 115.638 22.042ZM115.638 20.602C116.382 20.602 116.97 20.446 117.402 20.134C117.834 19.81 118.05 19.378 118.05 18.838C118.05 18.274 117.828 17.836 117.384 17.524C116.94 17.212 116.358 17.056 115.638 17.056C114.918 17.056 114.342 17.212 113.91 17.524C113.478 17.836 113.262 18.274 113.262 18.838C113.262 19.378 113.472 19.81 113.892 20.134C114.324 20.446 114.906 20.602 115.638 20.602ZM124.428 28L129.63 16.336L130.242 17.38H123.096L124.212 16.246V19.522H122.034V15.4H131.826V16.966L126.93 28H124.428ZM137.092 28.18C136.204 28.18 135.334 28.054 134.482 27.802C133.642 27.538 132.934 27.178 132.358 26.722L133.366 24.904C133.822 25.276 134.374 25.576 135.022 25.804C135.67 26.032 136.348 26.146 137.056 26.146C137.896 26.146 138.55 25.978 139.018 25.642C139.486 25.294 139.72 24.826 139.72 24.238C139.72 23.662 139.504 23.206 139.072 22.87C138.64 22.534 137.944 22.366 136.984 22.366H135.832V20.764L139.432 16.48L139.738 17.362H132.97V15.4H141.556V16.966L137.956 21.25L136.732 20.53H137.434C138.982 20.53 140.14 20.878 140.908 21.574C141.688 22.258 142.078 23.14 142.078 24.22C142.078 24.928 141.898 25.582 141.538 26.182C141.178 26.782 140.626 27.268 139.882 27.64C139.15 28 138.22 28.18 137.092 28.18ZM143.807 23.932V22.06H148.757V23.932H143.807ZM152.199 28V16.3L153.225 17.362H149.535V15.4H154.539V28H152.199ZM156.877 28V26.434L161.881 21.682C162.301 21.286 162.613 20.938 162.817 20.638C163.021 20.338 163.153 20.062 163.213 19.81C163.285 19.546 163.321 19.3 163.321 19.072C163.321 18.496 163.123 18.052 162.727 17.74C162.331 17.416 161.749 17.254 160.981 17.254C160.369 17.254 159.811 17.362 159.307 17.578C158.815 17.794 158.389 18.124 158.029 18.568L156.391 17.308C156.883 16.648 157.543 16.138 158.371 15.778C159.211 15.406 160.147 15.22 161.179 15.22C162.091 15.22 162.883 15.37 163.555 15.67C164.239 15.958 164.761 16.372 165.121 16.912C165.493 17.452 165.679 18.094 165.679 18.838C165.679 19.246 165.625 19.654 165.517 20.062C165.409 20.458 165.205 20.878 164.905 21.322C164.605 21.766 164.167 22.264 163.591 22.816L159.289 26.902L158.803 26.02H166.165V28H156.877ZM172.573 28.18C171.529 28.18 170.623 28.024 169.855 27.712C169.087 27.4 168.493 26.962 168.073 26.398C167.653 25.822 167.443 25.15 167.443 24.382C167.443 23.614 167.647 22.966 168.055 22.438C168.463 21.91 169.051 21.508 169.819 21.232C170.587 20.956 171.505 20.818 172.573 20.818C173.641 20.818 174.559 20.956 175.327 21.232C176.107 21.508 176.701 21.916 177.109 22.456C177.529 22.984 177.739 23.626 177.739 24.382C177.739 25.15 177.523 25.822 177.091 26.398C176.671 26.962 176.071 27.4 175.291 27.712C174.523 28.024 173.617 28.18 172.573 28.18ZM172.573 26.344C173.437 26.344 174.121 26.164 174.625 25.804C175.129 25.444 175.381 24.946 175.381 24.31C175.381 23.686 175.129 23.194 174.625 22.834C174.121 22.474 173.437 22.294 172.573 22.294C171.709 22.294 171.031 22.474 170.539 22.834C170.047 23.194 169.801 23.686 169.801 24.31C169.801 24.946 170.047 25.444 170.539 25.804C171.031 26.164 171.709 26.344 172.573 26.344ZM172.573 22.042C171.601 22.042 170.767 21.916 170.071 21.664C169.375 21.4 168.835 21.022 168.451 20.53C168.079 20.026 167.893 19.426 167.893 18.73C167.893 18.01 168.085 17.392 168.469 16.876C168.865 16.348 169.417 15.94 170.125 15.652C170.833 15.364 171.649 15.22 172.573 15.22C173.509 15.22 174.331 15.364 175.039 15.652C175.747 15.94 176.299 16.348 176.695 16.876C177.091 17.392 177.289 18.01 177.289 18.73C177.289 19.426 177.097 20.026 176.713 20.53C176.341 21.022 175.801 21.4 175.093 21.664C174.385 21.916 173.545 22.042 172.573 22.042ZM172.573 20.602C173.317 20.602 173.905 20.446 174.337 20.134C174.769 19.81 174.985 19.378 174.985 18.838C174.985 18.274 174.763 17.836 174.319 17.524C173.875 17.212 173.293 17.056 172.573 17.056C171.853 17.056 171.277 17.212 170.845 17.524C170.413 17.836 170.197 18.274 170.197 18.838C170.197 19.378 170.407 19.81 170.827 20.134C171.259 20.446 171.841 20.602 172.573 20.602ZM183.217 28.18C182.329 28.18 181.459 28.054 180.607 27.802C179.767 27.538 179.059 27.178 178.483 26.722L179.491 24.904C179.947 25.276 180.499 25.576 181.147 25.804C181.795 26.032 182.473 26.146 183.181 26.146C184.021 26.146 184.675 25.978 185.143 25.642C185.611 25.294 185.845 24.826 185.845 24.238C185.845 23.662 185.629 23.206 185.197 22.87C184.765 22.534 184.069 22.366 183.109 22.366H181.957V20.764L185.557 16.48L185.863 17.362H179.095V15.4H187.681V16.966L184.081 21.25L182.857 20.53H183.559C185.107 20.53 186.265 20.878 187.033 21.574C187.813 22.258 188.203 23.14 188.203 24.22C188.203 24.928 188.023 25.582 187.663 26.182C187.303 26.782 186.751 27.268 186.007 27.64C185.275 28 184.345 28.18 183.217 28.18Z" fill="white"/>
<path d="M2.29083 63V55.85L2.91783 56.499H0.662829V55.3H3.72083V63H2.29083ZM5.14928 63V62.043L8.20728 59.139C8.46395 58.897 8.65462 58.6843 8.77928 58.501C8.90395 58.3176 8.98462 58.149 9.02128 57.995C9.06528 57.8336 9.08728 57.6833 9.08728 57.544C9.08728 57.192 8.96628 56.9206 8.72428 56.73C8.48228 56.532 8.12662 56.433 7.65728 56.433C7.28328 56.433 6.94228 56.499 6.63428 56.631C6.33362 56.763 6.07328 56.9646 5.85328 57.236L4.85228 56.466C5.15295 56.0626 5.55628 55.751 6.06228 55.531C6.57562 55.3036 7.14762 55.19 7.77828 55.19C8.33562 55.19 8.81962 55.2816 9.23028 55.465C9.64828 55.641 9.96728 55.894 10.1873 56.224C10.4146 56.554 10.5283 56.9463 10.5283 57.401C10.5283 57.6503 10.4953 57.8996 10.4293 58.149C10.3633 58.391 10.2386 58.6476 10.0553 58.919C9.87195 59.1903 9.60428 59.4946 9.25228 59.832L6.62328 62.329L6.32628 61.79H10.8253V63H5.14928ZM11.7179 60.514V59.37H14.7429V60.514H11.7179ZM15.5692 63V62.043L18.6272 59.139C18.8839 58.897 19.0745 58.6843 19.1992 58.501C19.3239 58.3176 19.4045 58.149 19.4412 57.995C19.4852 57.8336 19.5072 57.6833 19.5072 57.544C19.5072 57.192 19.3862 56.9206 19.1442 56.73C18.9022 56.532 18.5465 56.433 18.0772 56.433C17.7032 56.433 17.3622 56.499 17.0542 56.631C16.7535 56.763 16.4932 56.9646 16.2732 57.236L15.2722 56.466C15.5729 56.0626 15.9762 55.751 16.4822 55.531C16.9955 55.3036 17.5675 55.19 18.1982 55.19C18.7555 55.19 19.2395 55.2816 19.6502 55.465C20.0682 55.641 20.3872 55.894 20.6072 56.224C20.8345 56.554 20.9482 56.9463 20.9482 57.401C20.9482 57.6503 20.9152 57.8996 20.8492 58.149C20.7832 58.391 20.6585 58.6476 20.4752 58.919C20.2919 59.1903 20.0242 59.4946 19.6722 59.832L17.0432 62.329L16.7462 61.79H21.2452V63H15.5692ZM25.2825 63.11C24.6739 63.11 24.1239 62.956 23.6325 62.648C23.1485 62.34 22.7672 61.8926 22.4885 61.306C22.2099 60.712 22.0705 59.9933 22.0705 59.15C22.0705 58.3066 22.2099 57.5916 22.4885 57.005C22.7672 56.411 23.1485 55.96 23.6325 55.652C24.1239 55.344 24.6739 55.19 25.2825 55.19C25.8985 55.19 26.4485 55.344 26.9325 55.652C27.4165 55.96 27.7979 56.411 28.0765 57.005C28.3625 57.5916 28.5055 58.3066 28.5055 59.15C28.5055 59.9933 28.3625 60.712 28.0765 61.306C27.7979 61.8926 27.4165 62.34 26.9325 62.648C26.4485 62.956 25.8985 63.11 25.2825 63.11ZM25.2825 61.867C25.6419 61.867 25.9535 61.7716 26.2175 61.581C26.4815 61.383 26.6869 61.0823 26.8335 60.679C26.9875 60.2756 27.0645 59.766 27.0645 59.15C27.0645 58.5266 26.9875 58.017 26.8335 57.621C26.6869 57.2176 26.4815 56.9206 26.2175 56.73C25.9535 56.532 25.6419 56.433 25.2825 56.433C24.9379 56.433 24.6299 56.532 24.3585 56.73C24.0945 56.9206 23.8855 57.2176 23.7315 57.621C23.5849 58.017 23.5115 58.5266 23.5115 59.15C23.5115 59.766 23.5849 60.2756 23.7315 60.679C23.8855 61.0823 24.0945 61.383 24.3585 61.581C24.6299 61.7716 24.9379 61.867 25.2825 61.867ZM29.3622 63V62.043L32.4202 59.139C32.6768 58.897 32.8675 58.6843 32.9922 58.501C33.1168 58.3176 33.1975 58.149 33.2342 57.995C33.2782 57.8336 33.3002 57.6833 33.3002 57.544C33.3002 57.192 33.1792 56.9206 32.9372 56.73C32.6952 56.532 32.3395 56.433 31.8702 56.433C31.4962 56.433 31.1552 56.499 30.8472 56.631C30.5465 56.763 30.2862 56.9646 30.0662 57.236L29.0652 56.466C29.3658 56.0626 29.7692 55.751 30.2752 55.531C30.7885 55.3036 31.3605 55.19 31.9912 55.19C32.5485 55.19 33.0325 55.2816 33.4432 55.465C33.8612 55.641 34.1802 55.894 34.4002 56.224C34.6275 56.554 34.7412 56.9463 34.7412 57.401C34.7412 57.6503 34.7082 57.8996 34.6422 58.149C34.5762 58.391 34.4515 58.6476 34.2682 58.919C34.0848 59.1903 33.8172 59.4946 33.4652 59.832L30.8362 62.329L30.5392 61.79H35.0382V63H29.3622ZM37.0955 63V55.85L37.7225 56.499H35.4675V55.3H38.5255V63H37.0955Z" fill="white"/>
<path d="M4.36383 51.054C3.88383 51.054 3.43983 50.976 3.03183 50.82C2.62983 50.658 2.27883 50.433 1.97883 50.145C1.68483 49.857 1.45383 49.518 1.28583 49.128C1.12383 48.738 1.04283 48.312 1.04283 47.85C1.04283 47.388 1.12383 46.962 1.28583 46.572C1.45383 46.182 1.68783 45.843 1.98783 45.555C2.28783 45.267 2.63883 45.045 3.04083 44.889C3.44883 44.727 3.89283 44.646 4.37283 44.646C4.85283 44.646 5.29083 44.721 5.68683 44.871C6.08883 45.021 6.43083 45.249 6.71283 45.555L6.29883 45.978C6.03483 45.714 5.74383 45.525 5.42583 45.411C5.10783 45.297 4.76583 45.24 4.39983 45.24C4.00983 45.24 3.64983 45.306 3.31983 45.438C2.99583 45.564 2.71083 45.747 2.46483 45.987C2.22483 46.221 2.03583 46.497 1.89783 46.815C1.76583 47.127 1.69983 47.472 1.69983 47.85C1.69983 48.222 1.76583 48.567 1.89783 48.885C2.03583 49.203 2.22483 49.482 2.46483 49.722C2.71083 49.956 2.99583 50.139 3.31983 50.271C3.64983 50.397 4.00683 50.46 4.39083 50.46C4.75083 50.46 5.08983 50.406 5.40783 50.298C5.73183 50.19 6.02883 50.007 6.29883 49.749L6.67683 50.253C6.37683 50.517 6.02583 50.718 5.62383 50.856C5.22183 50.988 4.80183 51.054 4.36383 51.054ZM6.03783 50.172V47.85H6.67683V50.253L6.03783 50.172ZM10.4338 51.045C9.94177 51.045 9.50977 50.943 9.13777 50.739C8.76577 50.529 8.47477 50.244 8.26477 49.884C8.05477 49.518 7.94977 49.101 7.94977 48.633C7.94977 48.165 8.04877 47.751 8.24677 47.391C8.45077 47.031 8.72677 46.749 9.07477 46.545C9.42877 46.335 9.82477 46.23 10.2628 46.23C10.7068 46.23 11.0998 46.332 11.4418 46.536C11.7898 46.734 12.0628 47.016 12.2608 47.382C12.4588 47.742 12.5578 48.159 12.5578 48.633C12.5578 48.663 12.5548 48.696 12.5488 48.732C12.5488 48.762 12.5488 48.795 12.5488 48.831H8.43577V48.354H12.2068L11.9548 48.543C11.9548 48.201 11.8798 47.898 11.7298 47.634C11.5858 47.364 11.3878 47.154 11.1358 47.004C10.8838 46.854 10.5928 46.779 10.2628 46.779C9.93877 46.779 9.64777 46.854 9.38977 47.004C9.13177 47.154 8.93077 47.364 8.78677 47.634C8.64277 47.904 8.57077 48.213 8.57077 48.561V48.66C8.57077 49.02 8.64877 49.338 8.80477 49.614C8.96677 49.884 9.18877 50.097 9.47077 50.253C9.75877 50.403 10.0858 50.478 10.4518 50.478C10.7398 50.478 11.0068 50.427 11.2528 50.325C11.5048 50.223 11.7208 50.067 11.9008 49.857L12.2608 50.271C12.0508 50.523 11.7868 50.715 11.4688 50.847C11.1568 50.979 10.8118 51.045 10.4338 51.045ZM13.8584 51V44.322H14.4974V51H13.8584ZM18.1564 51.045C17.7064 51.045 17.3014 50.943 16.9414 50.739C16.5874 50.535 16.3084 50.253 16.1044 49.893C15.9004 49.527 15.7984 49.107 15.7984 48.633C15.7984 48.153 15.9004 47.733 16.1044 47.373C16.3084 47.013 16.5874 46.734 16.9414 46.536C17.3014 46.332 17.7064 46.23 18.1564 46.23C18.5704 46.23 18.9394 46.323 19.2634 46.509C19.5934 46.695 19.8544 46.968 20.0464 47.328C20.2444 47.682 20.3434 48.117 20.3434 48.633C20.3434 49.143 20.2474 49.578 20.0554 49.938C19.8634 50.298 19.6024 50.574 19.2724 50.766C18.9484 50.952 18.5764 51.045 18.1564 51.045ZM18.2014 50.478C18.5374 50.478 18.8374 50.403 19.1014 50.253C19.3714 50.097 19.5814 49.881 19.7314 49.605C19.8874 49.323 19.9654 48.999 19.9654 48.633C19.9654 48.261 19.8874 47.937 19.7314 47.661C19.5814 47.385 19.3714 47.172 19.1014 47.022C18.8374 46.866 18.5374 46.788 18.2014 46.788C17.8714 46.788 17.5744 46.866 17.3104 47.022C17.0464 47.172 16.8364 47.385 16.6804 47.661C16.5244 47.937 16.4464 48.261 16.4464 48.633C16.4464 48.999 16.5244 49.323 16.6804 49.605C16.8364 49.881 17.0464 50.097 17.3104 50.253C17.5744 50.403 17.8714 50.478 18.2014 50.478ZM19.9834 51V49.578L20.0464 48.624L19.9564 47.67V44.322H20.5954V51H19.9834ZM22.375 51V46.275H23.014V51H22.375ZM22.699 45.231C22.567 45.231 22.456 45.186 22.366 45.096C22.276 45.006 22.231 44.898 22.231 44.772C22.231 44.646 22.276 44.541 22.366 44.457C22.456 44.367 22.567 44.322 22.699 44.322C22.831 44.322 22.942 44.364 23.032 44.448C23.122 44.532 23.167 44.637 23.167 44.763C23.167 44.895 23.122 45.006 23.032 45.096C22.948 45.186 22.837 45.231 22.699 45.231ZM26.808 52.791C26.376 52.791 25.962 52.728 25.566 52.602C25.17 52.476 24.849 52.296 24.603 52.062L24.927 51.576C25.149 51.774 25.422 51.93 25.746 52.044C26.076 52.164 26.424 52.224 26.79 52.224C27.39 52.224 27.831 52.083 28.113 51.801C28.395 51.525 28.536 51.093 28.536 50.505V49.326L28.626 48.516L28.563 47.706V46.275H29.175V50.424C29.175 51.24 28.974 51.837 28.572 52.215C28.176 52.599 27.588 52.791 26.808 52.791ZM26.691 50.82C26.241 50.82 25.836 50.724 25.476 50.532C25.116 50.334 24.831 50.061 24.621 49.713C24.417 49.365 24.315 48.966 24.315 48.516C24.315 48.066 24.417 47.67 24.621 47.328C24.831 46.98 25.116 46.71 25.476 46.518C25.836 46.326 26.241 46.23 26.691 46.23C27.111 46.23 27.489 46.317 27.825 46.491C28.161 46.665 28.428 46.923 28.626 47.265C28.824 47.607 28.923 48.024 28.923 48.516C28.923 49.008 28.824 49.425 28.626 49.767C28.428 50.109 28.161 50.37 27.825 50.55C27.489 50.73 27.111 50.82 26.691 50.82ZM26.754 50.253C27.102 50.253 27.411 50.181 27.681 50.037C27.951 49.887 28.164 49.683 28.32 49.425C28.476 49.161 28.554 48.858 28.554 48.516C28.554 48.174 28.476 47.874 28.32 47.616C28.164 47.358 27.951 47.157 27.681 47.013C27.411 46.863 27.102 46.788 26.754 46.788C26.412 46.788 26.103 46.863 25.827 47.013C25.557 47.157 25.344 47.358 25.188 47.616C25.038 47.874 24.963 48.174 24.963 48.516C24.963 48.858 25.038 49.161 25.188 49.425C25.344 49.683 25.557 49.887 25.827 50.037C26.103 50.181 26.412 50.253 26.754 50.253ZM34.8026 51.045C34.3586 51.045 34.0166 50.925 33.7766 50.685C33.5366 50.445 33.4166 50.106 33.4166 49.668V45.231H34.0556V49.632C34.0556 49.908 34.1246 50.121 34.2626 50.271C34.4066 50.421 34.6106 50.496 34.8746 50.496C35.1566 50.496 35.3906 50.415 35.5766 50.253L35.8016 50.712C35.6756 50.826 35.5226 50.91 35.3426 50.964C35.1686 51.018 34.9886 51.045 34.8026 51.045ZM32.5706 46.806V46.275H35.4956V46.806H32.5706ZM38.7239 51.045C38.2679 51.045 37.8569 50.943 37.4909 50.739C37.1309 50.529 36.8459 50.244 36.6359 49.884C36.4259 49.518 36.3209 49.101 36.3209 48.633C36.3209 48.159 36.4259 47.742 36.6359 47.382C36.8459 47.022 37.1309 46.74 37.4909 46.536C37.8509 46.332 38.2619 46.23 38.7239 46.23C39.1919 46.23 39.6059 46.332 39.9659 46.536C40.3319 46.74 40.6169 47.022 40.8209 47.382C41.0309 47.742 41.1359 48.159 41.1359 48.633C41.1359 49.101 41.0309 49.518 40.8209 49.884C40.6169 50.244 40.3319 50.529 39.9659 50.739C39.5999 50.943 39.1859 51.045 38.7239 51.045ZM38.7239 50.478C39.0659 50.478 39.3689 50.403 39.6329 50.253C39.8969 50.097 40.1039 49.881 40.2539 49.605C40.4099 49.323 40.4879 48.999 40.4879 48.633C40.4879 48.261 40.4099 47.937 40.2539 47.661C40.1039 47.385 39.8969 47.172 39.6329 47.022C39.3689 46.866 39.0689 46.788 38.7329 46.788C38.3969 46.788 38.0969 46.866 37.8329 47.022C37.5689 47.172 37.3589 47.385 37.2029 47.661C37.0469 47.937 36.9689 48.261 36.9689 48.633C36.9689 48.999 37.0469 49.323 37.2029 49.605C37.3589 49.881 37.5689 50.097 37.8329 50.253C38.0969 50.403 38.3939 50.478 38.7239 50.478ZM43.9344 51.045C43.4904 51.045 43.1484 50.925 42.9084 50.685C42.6684 50.445 42.5484 50.106 42.5484 49.668V45.231H43.1874V49.632C43.1874 49.908 43.2564 50.121 43.3944 50.271C43.5384 50.421 43.7424 50.496 44.0064 50.496C44.2884 50.496 44.5224 50.415 44.7084 50.253L44.9334 50.712C44.8074 50.826 44.6544 50.91 44.4744 50.964C44.3004 51.018 44.1204 51.045 43.9344 51.045ZM41.7024 46.806V46.275H44.6274V46.806H41.7024Z" fill="white"/>
<path d="M2.60083 8.99997V2.69997H3.14983L7.49683 8.17197H7.20883V2.69997H7.86583V8.99997H7.31683L2.97883 3.52797H3.26683V8.99997H2.60083ZM9.78712 8.99997V4.27497H10.4261V8.99997H9.78712ZM10.1111 3.23097C9.97912 3.23097 9.86812 3.18597 9.77812 3.09597C9.68812 3.00597 9.64312 2.89797 9.64312 2.77197C9.64312 2.64597 9.68812 2.54097 9.77812 2.45697C9.86812 2.36697 9.97912 2.32197 10.1111 2.32197C10.2431 2.32197 10.3541 2.36397 10.4441 2.44797C10.5341 2.53197 10.5791 2.63697 10.5791 2.76297C10.5791 2.89497 10.5341 3.00597 10.4441 3.09597C10.3601 3.18597 10.2491 3.23097 10.1111 3.23097ZM14.2111 9.04497C13.7191 9.04497 13.2871 8.94297 12.9151 8.73897C12.5431 8.52897 12.2521 8.24397 12.0421 7.88397C11.8321 7.51797 11.7271 7.10097 11.7271 6.63297C11.7271 6.16497 11.8261 5.75097 12.0241 5.39097C12.2281 5.03097 12.5041 4.74897 12.8521 4.54497C13.2061 4.33497 13.6021 4.22997 14.0401 4.22997C14.4841 4.22997 14.8771 4.33197 15.2191 4.53597C15.5671 4.73397 15.8401 5.01597 16.0381 5.38197C16.2361 5.74197 16.3351 6.15897 16.3351 6.63297C16.3351 6.66297 16.3321 6.69597 16.3261 6.73197C16.3261 6.76197 16.3261 6.79497 16.3261 6.83097H12.2131V6.35397H15.9841L15.7321 6.54297C15.7321 6.20097 15.6571 5.89797 15.5071 5.63397C15.3631 5.36397 15.1651 5.15397 14.9131 5.00397C14.6611 4.85397 14.3701 4.77897 14.0401 4.77897C13.7161 4.77897 13.4251 4.85397 13.1671 5.00397C12.9091 5.15397 12.7081 5.36397 12.5641 5.63397C12.4201 5.90397 12.3481 6.21297 12.3481 6.56097V6.65997C12.3481 7.01997 12.4261 7.33797 12.5821 7.61397C12.7441 7.88397 12.9661 8.09697 13.2481 8.25297C13.5361 8.40297 13.8631 8.47797 14.2291 8.47797C14.5171 8.47797 14.7841 8.42697 15.0301 8.32497C15.2821 8.22297 15.4981 8.06697 15.6781 7.85697L16.0381 8.27097C15.8281 8.52297 15.5641 8.71497 15.2461 8.84697C14.9341 8.97897 14.5891 9.04497 14.2111 9.04497ZM17.6358 8.99997V2.32197H18.2748V8.99997H17.6358ZM21.3217 9.04497C20.9317 9.04497 20.5627 8.99097 20.2147 8.88297C19.8667 8.76897 19.5937 8.62797 19.3957 8.45997L19.6837 7.95597C19.8757 8.09997 20.1217 8.22597 20.4217 8.33397C20.7217 8.43597 21.0367 8.48697 21.3667 8.48697C21.8167 8.48697 22.1407 8.41797 22.3387 8.27997C22.5367 8.13597 22.6357 7.94697 22.6357 7.71297C22.6357 7.53897 22.5787 7.40397 22.4647 7.30797C22.3567 7.20597 22.2127 7.13097 22.0327 7.08297C21.8527 7.02897 21.6517 6.98397 21.4297 6.94797C21.2077 6.91197 20.9857 6.86997 20.7637 6.82197C20.5477 6.77397 20.3497 6.70497 20.1697 6.61497C19.9897 6.51897 19.8427 6.38997 19.7287 6.22797C19.6207 6.06597 19.5667 5.84997 19.5667 5.57997C19.5667 5.32197 19.6387 5.09097 19.7827 4.88697C19.9267 4.68297 20.1367 4.52397 20.4127 4.40997C20.6947 4.28997 21.0367 4.22997 21.4387 4.22997C21.7447 4.22997 22.0507 4.27197 22.3567 4.35597C22.6627 4.43397 22.9147 4.53897 23.1127 4.67097L22.8337 5.18397C22.6237 5.03997 22.3987 4.93797 22.1587 4.87797C21.9187 4.81197 21.6787 4.77897 21.4387 4.77897C21.0127 4.77897 20.6977 4.85397 20.4937 5.00397C20.2957 5.14797 20.1967 5.33397 20.1967 5.56197C20.1967 5.74197 20.2507 5.88297 20.3587 5.98497C20.4727 6.08697 20.6197 6.16797 20.7997 6.22797C20.9857 6.28197 21.1867 6.32697 21.4027 6.36297C21.6247 6.39897 21.8437 6.44397 22.0597 6.49797C22.2817 6.54597 22.4827 6.61497 22.6627 6.70497C22.8487 6.78897 22.9957 6.91197 23.1037 7.07397C23.2177 7.22997 23.2747 7.43697 23.2747 7.69497C23.2747 7.97097 23.1967 8.21097 23.0407 8.41497C22.8907 8.61297 22.6687 8.76897 22.3747 8.88297C22.0867 8.99097 21.7357 9.04497 21.3217 9.04497ZM26.3167 8.99997V8.54097L30.6907 3.02397L30.7627 3.27597H26.3797V2.69997H31.3747V3.15897L27.0097 8.67597L26.9287 8.42397H31.4827V8.99997H26.3167ZM34.4592 9.04497C34.0032 9.04497 33.5922 8.94297 33.2262 8.73897C32.8662 8.52897 32.5812 8.24397 32.3712 7.88397C32.1612 7.51797 32.0562 7.10097 32.0562 6.63297C32.0562 6.15897 32.1612 5.74197 32.3712 5.38197C32.5812 5.02197 32.8662 4.73997 33.2262 4.53597C33.5862 4.33197 33.9972 4.22997 34.4592 4.22997C34.9272 4.22997 35.3412 4.33197 35.7012 4.53597C36.0672 4.73997 36.3522 5.02197 36.5562 5.38197C36.7662 5.74197 36.8712 6.15897 36.8712 6.63297C36.8712 7.10097 36.7662 7.51797 36.5562 7.88397C36.3522 8.24397 36.0672 8.52897 35.7012 8.73897C35.3352 8.94297 34.9212 9.04497 34.4592 9.04497ZM34.4592 8.47797C34.8012 8.47797 35.1042 8.40297 35.3682 8.25297C35.6322 8.09697 35.8392 7.88097 35.9892 7.60497C36.1452 7.32297 36.2232 6.99897 36.2232 6.63297C36.2232 6.26097 36.1452 5.93697 35.9892 5.66097C35.8392 5.38497 35.6322 5.17197 35.3682 5.02197C35.1042 4.86597 34.8042 4.78797 34.4682 4.78797C34.1322 4.78797 33.8322 4.86597 33.5682 5.02197C33.3042 5.17197 33.0942 5.38497 32.9382 5.66097C32.7822 5.93697 32.7042 6.26097 32.7042 6.63297C32.7042 6.99897 32.7822 7.32297 32.9382 7.60497C33.0942 7.88097 33.3042 8.09697 33.5682 8.25297C33.8322 8.40297 34.1292 8.47797 34.4592 8.47797ZM40.5878 4.22997C40.9718 4.22997 41.3078 4.30497 41.5958 4.45497C41.8898 4.59897 42.1178 4.82097 42.2798 5.12097C42.4478 5.42097 42.5318 5.79897 42.5318 6.25497V8.99997H41.8928V6.31797C41.8928 5.81997 41.7668 5.44497 41.5148 5.19297C41.2688 4.93497 40.9208 4.80597 40.4708 4.80597C40.1348 4.80597 39.8408 4.87497 39.5888 5.01297C39.3428 5.14497 39.1508 5.33997 39.0128 5.59797C38.8808 5.84997 38.8148 6.15597 38.8148 6.51597V8.99997H38.1758V4.27497H38.7878V5.57097L38.6888 5.32797C38.8388 4.98597 39.0788 4.71897 39.4088 4.52697C39.7388 4.32897 40.1318 4.22997 40.5878 4.22997ZM46.1388 9.04497C45.6888 9.04497 45.2838 8.94297 44.9238 8.73897C44.5698 8.53497 44.2908 8.25297 44.0868 7.89297C43.8828 7.52697 43.7808 7.10697 43.7808 6.63297C43.7808 6.15297 43.8828 5.73297 44.0868 5.37297C44.2908 5.01297 44.5698 4.73397 44.9238 4.53597C45.2838 4.33197 45.6888 4.22997 46.1388 4.22997C46.5528 4.22997 46.9218 4.32297 47.2458 4.50897C47.5758 4.69497 47.8368 4.96797 48.0288 5.32797C48.2268 5.68197 48.3258 6.11697 48.3258 6.63297C48.3258 7.14297 48.2298 7.57797 48.0378 7.93797C47.8458 8.29797 47.5848 8.57397 47.2548 8.76597C46.9308 8.95197 46.5588 9.04497 46.1388 9.04497ZM46.1838 8.47797C46.5198 8.47797 46.8198 8.40297 47.0838 8.25297C47.3538 8.09697 47.5638 7.88097 47.7138 7.60497C47.8698 7.32297 47.9478 6.99897 47.9478 6.63297C47.9478 6.26097 47.8698 5.93697 47.7138 5.66097C47.5638 5.38497 47.3538 5.17197 47.0838 5.02197C46.8198 4.86597 46.5198 4.78797 46.1838 4.78797C45.8538 4.78797 45.5568 4.86597 45.2928 5.02197C45.0288 5.17197 44.8188 5.38497 44.6628 5.66097C44.5068 5.93697 44.4288 6.26097 44.4288 6.63297C44.4288 6.99897 44.5068 7.32297 44.6628 7.60497C44.8188 7.88097 45.0288 8.09697 45.2928 8.25297C45.5568 8.40297 45.8538 8.47797 46.1838 8.47797ZM47.9658 8.99997V7.57797L48.0288 6.62397L47.9388 5.66997V2.32197H48.5778V8.99997H47.9658ZM52.3644 9.04497C51.8724 9.04497 51.4404 8.94297 51.0684 8.73897C50.6964 8.52897 50.4054 8.24397 50.1954 7.88397C49.9854 7.51797 49.8804 7.10097 49.8804 6.63297C49.8804 6.16497 49.9794 5.75097 50.1774 5.39097C50.3814 5.03097 50.6574 4.74897 51.0054 4.54497C51.3594 4.33497 51.7554 4.22997 52.1934 4.22997C52.6374 4.22997 53.0304 4.33197 53.3724 4.53597C53.7204 4.73397 53.9934 5.01597 54.1914 5.38197C54.3894 5.74197 54.4884 6.15897 54.4884 6.63297C54.4884 6.66297 54.4854 6.69597 54.4794 6.73197C54.4794 6.76197 54.4794 6.79497 54.4794 6.83097H50.3664V6.35397H54.1374L53.8854 6.54297C53.8854 6.20097 53.8104 5.89797 53.6604 5.63397C53.5164 5.36397 53.3184 5.15397 53.0664 5.00397C52.8144 4.85397 52.5234 4.77897 52.1934 4.77897C51.8694 4.77897 51.5784 4.85397 51.3204 5.00397C51.0624 5.15397 50.8614 5.36397 50.7174 5.63397C50.5734 5.90397 50.5014 6.21297 50.5014 6.56097V6.65997C50.5014 7.01997 50.5794 7.33797 50.7354 7.61397C50.8974 7.88397 51.1194 8.09697 51.4014 8.25297C51.6894 8.40297 52.0164 8.47797 52.3824 8.47797C52.6704 8.47797 52.9374 8.42697 53.1834 8.32497C53.4354 8.22297 53.6514 8.06697 53.8314 7.85697L54.1914 8.27097C53.9814 8.52297 53.7174 8.71497 53.3994 8.84697C53.0874 8.97897 52.7424 9.04497 52.3644 9.04497ZM55.7891 8.99997V4.27497H56.4011V5.56197L56.3381 5.33697C56.4701 4.97697 56.6921 4.70397 57.0041 4.51797C57.3161 4.32597 57.7031 4.22997 58.1651 4.22997V4.85097C58.1411 4.85097 58.1171 4.85097 58.0931 4.85097C58.0691 4.84497 58.0451 4.84197 58.0211 4.84197C57.5231 4.84197 57.1331 4.99497 56.8511 5.30097C56.5691 5.60097 56.4281 6.02997 56.4281 6.58797V8.99997H55.7891ZM60.7482 8.99997L58.6512 4.27497H59.3172L61.2432 8.65797H60.9282L62.8812 4.27497H63.5112L61.4052 8.99997H60.7482ZM67.2315 8.99997V7.95597L67.2045 7.78497V6.03897C67.2045 5.63697 67.0905 5.32797 66.8625 5.11197C66.6405 4.89597 66.3075 4.78797 65.8635 4.78797C65.5575 4.78797 65.2665 4.83897 64.9905 4.94097C64.7145 5.04297 64.4805 5.17797 64.2885 5.34597L64.0005 4.86897C64.2405 4.66497 64.5285 4.50897 64.8645 4.40097C65.2005 4.28697 65.5545 4.22997 65.9265 4.22997C66.5385 4.22997 67.0095 4.38297 67.3395 4.68897C67.6755 4.98897 67.8435 5.44797 67.8435 6.06597V8.99997H67.2315ZM65.6025 9.04497C65.2485 9.04497 64.9395 8.98797 64.6755 8.87397C64.4175 8.75397 64.2195 8.59197 64.0815 8.38797C63.9435 8.17797 63.8745 7.93797 63.8745 7.66797C63.8745 7.42197 63.9315 7.19997 64.0455 7.00197C64.1655 6.79797 64.3575 6.63597 64.6215 6.51597C64.8915 6.38997 65.2515 6.32697 65.7015 6.32697H67.3305V6.80397H65.7195C65.2635 6.80397 64.9455 6.88497 64.7655 7.04697C64.5915 7.20897 64.5045 7.40997 64.5045 7.64997C64.5045 7.91997 64.6095 8.13597 64.8195 8.29797C65.0295 8.45997 65.3235 8.54097 65.7015 8.54097C66.0615 8.54097 66.3705 8.45997 66.6285 8.29797C66.8925 8.12997 67.0845 7.88997 67.2045 7.57797L67.3485 8.01897C67.2285 8.33097 67.0185 8.57997 66.7185 8.76597C66.4245 8.95197 66.0525 9.04497 65.6025 9.04497ZM71.9911 4.22997C72.3751 4.22997 72.7111 4.30497 72.9991 4.45497C73.2931 4.59897 73.5211 4.82097 73.6831 5.12097C73.8511 5.42097 73.9351 5.79897 73.9351 6.25497V8.99997H73.2961V6.31797C73.2961 5.81997 73.1701 5.44497 72.9181 5.19297C72.6721 4.93497 72.3241 4.80597 71.8741 4.80597C71.5381 4.80597 71.2441 4.87497 70.9921 5.01297C70.7461 5.14497 70.5541 5.33997 70.4161 5.59797C70.2841 5.84997 70.2181 6.15597 70.2181 6.51597V8.99997H69.5791V4.27497H70.1911V5.57097L70.0921 5.32797C70.2421 4.98597 70.4821 4.71897 70.8121 4.52697C71.1421 4.32897 71.5351 4.22997 71.9911 4.22997Z" fill="white"/>
</svg>
